<svg width="32" height="32" viewBox="0 0 32 32" fill="none" xmlns="http://www.w3.org/2000/svg">
<path d="M14.2507 26.4994H5.50056V5.50027H14.2507V26.4994ZM24.7511 9.0004C24.7511 10.9333 23.184 12.5004 21.2509 12.5004C19.3179 12.5004 17.7508 10.9333 17.7508 9.0004C17.7508 7.06733 19.3179 5.50027 21.2509 5.50027C23.184 5.50027 24.7511 7.06733 24.7511 9.0004ZM26.5006 20.438L23.6865 15.5642C24.7793 15.158 25.7433 14.4869 26.5006 13.6286V20.438ZM19.8103 15.8507L25.9585 26.4994H17.7504V15.0613C18.3814 15.4265 19.0746 15.6961 19.8103 15.8507ZM2 30H30V2H2V30Z" fill="black"/>
</svg>
