<svg width="32" height="32" viewBox="0 0 32 32" fill="none" xmlns="http://www.w3.org/2000/svg">
<g clip-path="url(#clip0_414_88)">
<rect width="32" height="32" rx="8" fill="#232323"/>
<path d="M14.8755 22.7496H9.25036V9.25017H14.8755V22.7496ZM21.6257 11.5003C21.6257 12.7428 20.6183 13.7502 19.3756 13.7502C18.133 13.7502 17.1255 12.7428 17.1255 11.5003C17.1255 10.2576 18.133 9.25017 19.3756 9.25017C20.6183 9.25017 21.6257 10.2576 21.6257 11.5003ZM22.7504 18.853L20.9413 15.7199C21.6438 15.4587 22.2636 15.0273 22.7504 14.4756V18.853ZM18.4495 15.904L22.4019 22.7496H17.1252V15.3965C17.5309 15.6313 17.9765 15.8046 18.4495 15.904ZM7 25H25V7H7V25Z" fill="white"/>
</g>
<defs>
<clipPath id="clip0_414_88">
<rect width="32" height="32" fill="white"/>
</clipPath>
</defs>
</svg>
