<svg width="120" height="29" viewBox="0 0 120 29" fill="none" xmlns="http://www.w3.org/2000/svg">
<path d="M12.6008 25.3744H3.60057V3.62528H12.6008V25.3744ZM23.4012 7.25041C23.4012 9.25236 21.7893 10.8754 19.8009 10.8754C17.8127 10.8754 16.2008 9.25236 16.2008 7.25041C16.2008 5.2483 17.8127 3.62528 19.8009 3.62528C21.7893 3.62528 23.4012 5.2483 23.4012 7.25041ZM25.2006 19.0965L22.3062 14.0487C23.4301 13.628 24.4217 12.9328 25.2006 12.044V19.0965ZM18.3192 14.3454L24.643 25.3744H16.2004V13.5278C16.8494 13.906 17.5624 14.1853 18.3192 14.3454ZM0 29H28.8V0H0V29Z" fill="black"/>
<path d="M48.4369 12.9898H42.6373V3.91007L48.5607 3.92706L48.4369 12.9898ZM49.3419 16.6143H52.3834L52.391 0H38.4V29H42.6579V16.6143L45.0842 16.618L49.0378 29H53.6L49.3419 16.6143Z" fill="black"/>
<path d="M65.8274 24.9218H59.9309V3.92727H62.6522H65.8274V24.9218ZM56 0V29H69.6V0H56Z" fill="black"/>
<path d="M73.6 29H86.4V24.7707H77.8691L77.8694 0H73.6003L73.6 29Z" fill="black"/>
<path d="M89.6002 0L89.6 29H101.593V24.7706L93.6975 24.7709V16.3124L100.715 16.3122L100.722 12.3856H93.6978V3.92709H101.6L101.6 0H89.6002Z" fill="black"/>
<path d="M104.8 20.5415H108.972L108.973 25.0729H115.82V18.1248L104.8 12.9899V0H120V8.1562H115.827V3.92709H108.973V9.96886L119.993 15.1038V29H104.8V20.5415Z" fill="black"/>
</svg>
